Coordinates
version=1
nRows=13
nColumns=36
inDegrees=yes

Units are S.I. units (second, meters, Newtons, ...)
If the header above contains a line with 'inDegrees', this indicates whether rotational values are in degrees (yes) or radians (no).

endheader
time	pelvis_tilt	pelvis_list	pelvis_rotation	pelvis_tx	pelvis_ty	pelvis_tz	hip_flexion_r	hip_adduction_r	hip_rotation_r	knee_angle_r	knee_angle_r_beta	ankle_angle_r	subtalar_angle_r	mtp_angle_r	hip_flexion_l	hip_adduction_l	hip_rotation_l	knee_angle_l	knee_angle_l_beta	ankle_angle_l	subtalar_angle_l	mtp_angle_l	lumbar_extension	lumbar_bending	lumbar_rotation	arm_flex_r	arm_add_r	arm_rot_r	elbow_flex_r	pro_sup_r	arm_flex_l	arm_add_l	arm_rot_l	elbow_flex_l	pro_sup_l
      4.37916670	     -9.36105859	      0.64303488	    -11.27600485	      0.41288264	      0.97820871	     -0.08130253	     11.25745364	     -4.09858742	      1.15421682	      7.95299827	      0.13880601	      5.14924140	     -4.72295739	     -7.49999987	      4.68210978	     -5.04419380	    -18.01644067	      4.73698419	      0.08267597	      1.43417193	    -10.42162058	     -7.49999987	      1.11460470	      0.21630722	    -13.73594954	     -3.99018391	     -6.05588245	    -34.57894275	     38.38797038	     70.20563260	     -1.89059100	    -23.54281008	     27.04296206	     79.89750295	     88.43351723
      4.38333330	     -9.27995934	      0.58626764	    -11.59079237	      0.41304630	      0.97837461	     -0.08073108	     11.45143703	     -3.93601991	      1.32724195	      8.31103470	      0.14505492	      5.21215600	     -4.86936521	     -7.49999987	      4.70303155	     -5.23107072	    -18.05969330	      5.08610035	      0.08876920	      1.25244231	    -10.89645985	     -7.49999987	      1.04541920	     -0.02721362	    -14.19435732	     -3.61372340	     -5.95845997	    -33.88172709	     38.20728575	     70.22823539	     -1.57770278	    -24.13142844	     27.50995133	     79.87046171	     88.14641849
      4.38750000	     -9.25671798	      0.56828840	    -11.96729401	      0.41300589	      0.97833765	     -0.08097260	     11.77770607	     -3.86097526	      1.37162731	      8.70614321	      0.15195086	      5.08445788	     -5.10154277	     -7.49999987	      4.86860895	     -5.38344590	    -18.22024001	      5.55540380	      0.09696009	      1.19248611	    -11.39875789	     -7.49999987	      0.98876560	     -0.14944897	    -14.56467431	     -3.17989572	     -5.96065020	    -32.69111833	     37.98268736	     69.86065564	     -0.87942925	    -24.71693449	     28.19580556	     80.01579427	     86.84144672
      4.39166670	     -9.32678477	      0.55125648	    -12.31635682	      0.41294941	      0.97859404	     -0.08036660	     12.13695113	     -3.75002835	      1.49916441	      9.02421681	      0.15750230	      4.96449821	     -5.37936509	     -7.49999987	      5.14839510	     -5.56280698	    -18.27735638	      6.07397210	      0.10601081	      1.00001847	    -12.08320306	     -7.49999987	      1.13979137	     -0.33778852	    -14.85823268	     -2.83239272	     -6.05210669	    -31.65838296	     37.61452303	     69.40271378	     -0.57624951	    -25.20077710	     28.88303817	     80.09093016	     85.12607061
      4.39583330	     -9.59771597	      0.53607681	    -12.57527151	      0.41343932	      0.97792862	     -0.08054100	     12.62171880	     -3.64732777	      1.45688010	      9.31935191	      0.16265338	      5.17899707	     -5.38114249	     -7.49999987	      5.67288222	     -5.78009314	    -18.23437132	      6.65109440	      0.11608350	      1.24834442	    -12.47652769	     -7.49999987	      1.57600518	     -0.36797345	    -15.02761097	     -2.98228081	     -6.06652476	    -31.46345895	     38.15688290	     69.20914419	     -0.62864670	    -25.32684671	     29.05555346	     80.13453488	     84.57905948
      4.40000000	     -9.35069541	      0.47571143	    -12.88063277	      0.41318176	      0.97843896	     -0.08016263	     12.56223962	     -3.60432105	      1.61155852	      9.55234719	      0.16671991	      4.93496635	     -5.95611879	     -7.49999987	      5.59766610	     -5.88718117	    -18.18036140	      7.08716167	      0.12369431	      0.77182460	    -13.57053956	     -7.49999987	      1.17534808	     -0.53389379	    -15.36439025	     -2.15863650	     -6.37673980	    -29.42058856	     36.98519598	     69.42563419	     -0.51082025	    -25.79617027	     29.48683487	     80.41214159	     84.08751480
      4.40416670	     -9.33374897	      0.42966068	    -13.10673299	      0.41314529	      0.97827581	     -0.08033316	     12.70611868	     -3.53471099	      1.72201747	      9.76722118	      0.17047017	      5.08250240	     -6.13752866	     -7.49999987	      5.81387884	     -6.02612312	    -18.00891717	      7.61971390	      0.13298910	      0.73578251	    -14.39734415	     -7.49999987	      1.20508592	     -0.60551994	    -15.68428142	     -1.98636639	     -6.49132743	    -27.95796711	     36.88973203	     68.59851429	     -0.51628961	    -25.96493683	     29.67872116	     80.58651832	     81.35282830
      4.40833330	     -9.25424961	      0.38063818	    -13.44114685	      0.41294540	      0.97843885	     -0.07970099	     12.92876564	     -3.46497506	      1.87383888	     10.25258073	      0.17894129	      5.16050425	     -6.37122115	     -7.49999987	      5.83423156	     -6.15813816	    -17.94224863	      7.93693841	      0.13852571	      0.71730530	    -15.10620967	     -7.49999987	      0.99437612	     -0.61333722	    -15.99877505	     -1.54860218	     -6.54476731	    -26.96851620	     36.61881644	     68.85750251	     -0.40806816	    -26.12570972	     29.79369691	     80.56887377	     81.58229598
      4.41250000	     -9.36307190	      0.33280280	    -13.65280479	      0.41303135	      0.97812650	     -0.07988003	     13.32246319	     -3.38807346	      1.93412201	     10.72484207	      0.18718381	      5.28239588	     -6.46646067	     -7.49999987	      6.08334650	     -6.29502393	    -17.79052778	      8.31288918	      0.14508729	      0.69211612	    -15.83618833	     -7.49999987	      1.06323769	     -0.54002120	    -17.10816485	     -0.79901210	     -6.77481769	    -24.91302434	     36.04201315	     71.47096304	     -1.35093044	    -26.19008667	     28.09481962	     80.74268736	     86.51265175
      4.41666670	     -9.22637693	      0.24740661	    -13.94281720	      0.41281427	      0.97847871	     -0.07929285	     13.41417110	     -3.31934257	      1.89722492	     11.12966367	      0.19424928	      5.24143052	     -6.90252662	     -7.49999987	      5.97167704	     -6.39923065	    -17.84201153	      8.54639316	      0.14916270	      0.67581309	    -16.32715668	     -7.49999987	      0.90730734	     -0.51067638	    -17.35982090	     -0.51729620	     -6.70950028	    -24.67554475	     35.98313093	     71.01604512	     -0.65684620	    -26.27502978	     28.63731945	     80.10985066	     85.79191775
      4.42083330	     -9.19434792	      0.14818171	    -14.29697679	      0.40905280	      0.97830357	     -0.07473667	     13.65297485	     -3.09029035	      1.59809235	     11.31471260	      0.19747899	      5.24872864	     -7.19034332	     -7.49999987	      5.99078369	     -6.62303716	    -18.15140913	      8.78691370	      0.15336058	      0.72075654	    -16.62547806	     -7.49999987	      0.78893816	     -0.57077347	    -17.48335604	     -0.27023406	     -6.40165823	    -24.46778622	     35.98098223	     71.08227039	     -0.37272553	    -26.57670713	     28.59133212	     79.89469937	     85.82806135
      4.42500000	     -9.21691269	      0.00846865	    -14.56789665	      0.40882277	      0.97847695	     -0.07417733	     13.90070584	     -2.77531204	      1.60216227	     11.46059464	      0.20002511	      4.87762908	     -8.18987705	     -7.49999987	      6.16107388	     -6.90444348	    -18.07743312	      9.17757558	      0.16017891	      0.47468976	    -17.32050717	     -7.49999987	      0.82798260	     -0.57615853	    -17.69288884	      0.09624982	     -6.35174788	    -23.54094067	     35.51901312	     70.85139784	      0.28102100	    -26.80790710	     29.11149017	     79.28115070	     84.85362311
      4.42916670	     -9.50389698	      0.00847139	    -14.87347806	      0.40909672	      0.97795195	     -0.07435697	     14.44793155	     -2.59777284	      1.22809317	     11.58814511	      0.20225129	      4.94427172	     -8.39933922	     -7.49999987	      6.62611161	     -7.12927428	    -18.27935875	      9.58034627	      0.16720859	      0.56403438	    -17.41848149	     -7.49999987	      1.22478200	     -0.61459071	    -17.86474853	     -0.08899655	     -6.20530762	    -23.31181435	     36.19776191	     70.49356445	      0.53288179	    -26.97885350	     29.19338397	     79.19557365	     84.07695476
